<svg version="1.1" id="Layer_1" xmlns="http://www.w3.org/2000/svg" xmlns:xlink="http://www.w3.org/1999/xlink" x="0px" y="0px"
	 width="100%" viewBox="0 0 1600 267" xml:space="preserve">
<path fill="#010405" opacity="1.000000" stroke="none" 
	d="
M1.000000,267.000000 
	C1.000000,178.350632 1.000000,89.701271 1.000000,1.025954 
	C534.211975,1.025954 1067.423950,1.025954 1601.000000,1.025954 
	C1601.000000,89.361038 1601.000000,177.722565 1600.552368,266.542419 
	C1067.069824,267.000519 534.034912,267.000244 1.000000,267.000000 
M781.016663,190.976929 
	C781.740479,190.533493 782.464355,190.090042 783.938293,189.375168 
	C785.054199,188.836945 786.170044,188.298737 787.370056,187.719925 
	C787.807007,189.725555 788.148193,191.291870 788.561646,193.189789 
	C793.405518,192.460968 797.934631,191.779495 802.463806,191.098038 
	C796.577454,189.754776 795.793701,185.948898 795.865234,181.060516 
	C796.047913,168.570999 795.919312,156.076904 795.913086,143.584641 
	C795.910461,138.229492 792.624023,133.771851 786.961731,131.620590 
	C786.961731,139.515656 786.961731,147.340302 786.961731,153.778564 
	C781.113770,152.894653 775.555847,152.054596 769.311401,151.044434 
	C768.874084,151.194717 768.436829,151.344986 767.304199,151.368423 
	C764.481812,152.738708 761.659424,154.108994 758.180664,155.712540 
	C757.255249,156.736618 756.329834,157.760696 754.847900,159.115799 
	C749.418945,167.861572 749.489014,178.670227 755.019531,185.590363 
	C760.584595,192.553711 770.067810,194.924545 779.663208,191.647705 
	C779.984741,191.540070 780.219666,191.333801 781.016663,190.976929 
M561.827515,186.142578 
	C562.172180,186.037842 562.368958,185.807007 562.981140,185.313599 
	C563.347595,185.196259 563.713989,185.078934 564.489075,185.437637 
	C564.857117,186.165176 565.225159,186.892715 565.799805,188.273392 
	C568.429932,191.820267 571.866455,192.539810 576.432861,191.321640 
	C576.980225,190.893600 577.527588,190.465561 578.662659,189.813828 
	C579.269104,188.750122 579.875610,187.686417 580.892578,186.245972 
	C580.828308,185.167252 580.764038,184.088516 580.699707,183.009796 
	C580.389099,182.995697 580.078430,182.981598 579.767822,182.967499 
	C579.533630,183.656799 579.299500,184.346115 578.500671,185.593582 
	C576.939392,186.123016 575.190491,187.321167 573.880737,186.953842 
	C572.961731,186.696091 572.179993,184.318863 572.133728,182.862778 
	C571.937866,176.709396 572.042847,170.546509 572.033752,164.387100 
	C572.011292,149.207153 568.429382,145.838440 553.217590,146.964828 
	C550.760071,147.146805 548.190491,147.608505 545.963074,148.596008 
	C543.754211,149.575302 541.561096,151.091934 540.039307,152.933350 
	C539.107361,154.061157 539.165771,156.279480 539.371704,157.934387 
	C539.448242,158.549759 541.519348,159.612869 542.143982,159.321365 
	C543.505249,158.686172 544.971558,157.527786 545.605164,156.204941 
	C549.317993,148.452087 554.744202,146.660660 562.461182,151.562164 
	C563.054993,152.687866 563.648743,153.813583 564.229126,155.814560 
	C564.096375,158.097687 563.963623,160.380814 563.830139,162.595657 
	C563.830139,162.595657 563.870911,162.540909 563.137451,162.883362 
	C562.412109,163.229416 561.686707,163.575470 560.207214,163.914932 
	C556.411621,165.742645 552.616028,167.570374 548.137085,169.621582 
	C545.223572,171.800186 542.000427,173.673752 539.475891,176.235687 
	C536.419739,179.337112 536.075562,183.401321 537.846008,187.365829 
	C539.616455,191.330276 543.265869,192.216782 547.071655,191.684616 
	C550.133972,191.256393 553.083801,190.023956 556.779907,189.101593 
	C558.305420,188.141754 559.830994,187.181931 561.827515,186.142578 
M612.112244,146.874512 
	C610.635559,146.963638 609.158936,147.052780 607.682251,147.141922 
	C607.670288,147.648758 607.658325,148.155609 607.646362,148.662445 
	C609.249268,148.741562 610.852173,148.820663 613.028564,149.245911 
	C614.376587,151.158691 615.629272,153.149261 617.104858,154.957962 
	C618.155579,156.245895 619.342529,157.757416 620.785889,158.262344 
	C621.625244,158.555954 623.910767,157.225830 624.092041,156.331680 
	C624.403076,154.796875 624.119263,152.125092 623.126831,151.530548 
	C619.988525,149.650650 616.406372,148.511780 612.112244,146.874512 
M1030.449951,189.918076 
	C1032.963745,188.945694 1035.477417,187.973312 1038.442627,187.515732 
	C1040.940796,191.921249 1044.803345,192.613937 1049.177612,191.133957 
	C1052.341064,190.063599 1053.041138,187.439758 1052.864258,184.797806 
	C1050.792236,185.766678 1048.933105,186.635941 1047.074097,187.505249 
	C1046.416260,185.442535 1045.271973,183.398682 1045.191162,181.313599 
	C1044.939697,174.826569 1045.475464,168.291550 1044.931641,161.840408 
	C1044.641235,158.396439 1043.632812,154.275696 1041.414917,151.880447 
	C1036.339233,146.398773 1019.236633,148.279587 1014.776489,154.370651 
	C1013.860229,155.621841 1013.757568,157.678009 1013.838440,159.335876 
	C1013.866638,159.912384 1015.918640,161.077377 1016.460632,160.805603 
	C1017.790833,160.138489 1019.212952,158.996201 1019.832642,157.683701 
	C1022.623474,151.773651 1025.940186,149.619232 1031.887939,151.413177 
	C1033.995728,152.048950 1036.307007,154.388107 1037.082397,156.483566 
	C1038.137695,159.335846 1038.983398,163.007904 1034.242676,165.138351 
	C1027.595459,168.897308 1020.667053,172.249741 1014.411865,176.575562 
	C1010.948242,178.970840 1010.493530,183.464081 1012.307373,187.460220 
	C1014.182800,191.591843 1018.000366,192.249298 1022.000244,191.705048 
	C1024.600708,191.351242 1027.132935,190.497589 1030.449951,189.918076 
M1074.125366,153.220734 
	C1073.860962,151.520996 1073.596436,149.821274 1073.295410,147.886490 
	C1068.625610,148.882843 1064.630981,149.735153 1059.276001,150.877701 
	C1066.507935,152.955231 1066.722412,153.180695 1066.784668,159.607529 
	C1066.845947,165.929871 1066.790894,172.253357 1066.782104,178.576340 
	C1066.771362,186.346390 1066.769287,186.346390 1059.805176,189.819275 
	C1067.448364,189.819275 1074.241455,189.819275 1081.034424,189.819275 
	C1081.087646,189.389709 1081.140869,188.960129 1081.194092,188.530563 
	C1079.526245,188.325531 1077.858276,188.120499 1075.897095,187.339294 
	C1075.371582,186.669388 1074.846191,185.999481 1074.187866,184.487213 
	C1074.465576,176.008026 1074.743408,167.528854 1075.289551,158.563766 
	C1075.156616,153.529129 1079.617432,153.505890 1082.631470,152.444321 
	C1083.576538,152.111481 1085.372559,154.781342 1087.006104,155.649994 
	C1088.598511,156.496826 1090.481201,156.797928 1092.236450,157.338654 
	C1092.396118,155.434784 1093.371338,153.033432 1092.568237,151.716675 
	C1089.719971,147.046951 1081.722900,148.006317 1077.744019,152.974075 
	C1077.077637,153.806061 1075.262085,153.717499 1074.125366,153.220734 
M1126.499023,234.152924 
	C1207.771973,234.152924 1289.044800,234.152924 1370.212524,234.152924 
	C1370.212524,166.947174 1370.212524,100.232201 1370.212524,33.518517 
	C1197.192993,33.518517 1024.606445,33.518517 851.722473,33.518517 
	C851.722473,35.340252 851.722473,36.991104 851.722473,39.147964 
	C1023.048401,39.147964 1193.909180,39.147964 1364.656372,39.147964 
	C1364.656372,102.703644 1364.656372,165.749481 1364.656372,229.189377 
	C1229.537598,229.189377 1094.811523,229.189377 959.890015,229.189377 
	C959.890015,231.001816 959.890015,232.417786 959.890015,234.152893 
	C1015.239929,234.152893 1070.369385,234.152893 1126.499023,234.152924 
M284.499939,234.143799 
	C405.255554,234.143799 526.011169,234.143799 647.092163,234.143799 
	C646.981445,232.121368 646.903564,230.699814 646.799927,228.806641 
	C510.085388,228.806641 373.704987,228.806641 237.410873,228.806641 
	C237.410873,165.265350 237.410873,102.216301 237.410873,38.652916 
	C408.691528,38.652916 579.592529,38.652916 750.923096,38.652916 
	C750.721924,36.549622 750.574585,35.008968 750.433716,33.536053 
	C577.277527,33.536053 404.679321,33.536053 231.756378,33.536053 
	C231.756378,100.439941 231.756378,167.160934 231.756378,234.143799 
	C249.196091,234.143799 266.348022,234.143799 284.499939,234.143799 
M454.463867,144.502304 
	C454.470947,155.485687 454.698883,166.474899 454.409973,177.450485 
	C454.206299,185.188950 453.745331,187.741806 445.905853,187.892654 
	C445.330780,187.903717 444.770569,188.686401 443.973877,189.281967 
	C449.934814,191.168365 473.702179,190.622803 476.461761,188.271027 
	C474.140747,188.007828 472.080841,188.198593 470.419067,187.475006 
	C468.477936,186.629745 465.447906,185.063202 465.373932,183.677063 
	C464.910492,174.991989 465.139709,166.269958 465.139709,157.081314 
	C470.653900,157.081314 475.672028,157.466171 480.610687,157.003220 
	C491.778168,155.956375 498.465790,149.027863 498.727020,138.824432 
	C498.978790,128.989090 493.122589,121.841530 481.799103,121.013298 
	C469.590729,120.120346 457.252197,120.992577 444.971313,121.159073 
	C444.486816,121.165642 444.011322,121.836571 442.564850,122.926254 
	C444.660522,123.385010 445.770935,123.737541 446.905975,123.858292 
	C452.966949,124.503090 454.358978,125.957817 454.439911,132.021408 
	C454.490997,135.848373 454.458771,139.676437 454.463867,144.502304 
M800.936096,111.502953 
	C809.192444,122.334770 817.615845,133.045471 825.604553,144.071228 
	C828.042480,147.436050 830.055420,147.913055 833.337341,145.471634 
	C831.514832,143.229095 829.687256,141.104538 827.995544,138.876877 
	C821.484314,130.302536 816.346802,121.214226 815.162659,110.137085 
	C812.172668,82.166283 808.875488,54.228207 805.640320,26.284082 
	C805.479309,24.893101 804.741211,23.568932 804.271790,22.213654 
	C802.749634,23.634081 802.347595,24.851305 802.247437,26.092876 
	C800.253235,50.817062 798.411377,75.554474 796.222229,100.261162 
	C795.814819,104.859039 796.535828,108.384430 800.936096,111.502953 
M969.496948,190.361893 
	C974.242859,190.361893 978.988708,190.361893 983.734619,190.361893 
	C983.727844,189.676804 983.721069,188.991714 983.714233,188.306641 
	C982.022156,188.146164 980.050415,188.477280 978.702942,187.710846 
	C976.644348,186.540009 973.580688,184.716766 973.453491,182.986130 
	C972.885071,175.249252 973.206360,167.447006 973.206360,159.073013 
	C977.420105,159.073013 981.394165,159.327240 985.323914,159.018158 
	C992.668030,158.440552 999.682434,156.707184 1003.431458,149.469589 
	C1009.523071,137.709717 1002.446289,125.225723 988.351257,124.148048 
	C977.442505,123.314003 966.403809,124.145828 955.424438,124.328728 
	C954.542114,124.343430 953.671631,125.070328 951.845886,125.895538 
	C953.492310,126.560814 954.012695,126.900658 954.569031,126.976448 
	C962.854309,128.105011 963.220764,128.543747 963.211243,136.996155 
	C963.196289,150.325516 963.224121,163.654907 963.211731,176.984268 
	C963.203247,186.084961 963.183777,186.074356 954.524536,188.239838 
	C954.198608,188.321350 954.023682,189.006790 953.192993,190.374985 
	C958.721191,190.374985 963.612976,190.374985 969.496948,190.361893 
M658.340393,188.825439 
	C649.381348,188.717758 645.391602,185.712585 644.357666,177.319458 
	C643.778320,172.616592 644.253418,167.783844 644.253418,162.453522 
	C653.602173,162.453522 662.654846,162.453522 671.665222,162.453522 
	C671.990601,153.858109 667.046936,148.098160 658.885864,146.977356 
	C649.667847,145.711411 641.942749,149.453842 637.877686,157.154785 
	C632.998962,166.397186 634.202881,178.724670 640.659912,185.642883 
	C646.087158,191.457779 656.968933,193.564926 664.729919,189.993301 
	C669.009155,188.023987 672.512695,185.136780 672.692749,180.523071 
	C668.246216,183.243027 663.738342,186.000504 658.340393,188.825439 
M520.942749,161.499969 
	C520.942749,147.148956 520.942749,132.797943 520.942749,118.183388 
	C515.883972,119.241821 511.548462,120.148926 507.212952,121.056030 
	C513.982361,122.221870 512.968811,127.286682 512.975525,131.712219 
	C513.000854,148.339294 512.906006,164.967026 513.032776,181.593170 
	C513.065796,185.914551 511.579346,188.231171 507.046570,188.160233 
	C506.394958,188.150024 505.735046,188.670792 505.079010,188.945831 
	C505.135010,189.214249 505.191010,189.482651 505.247009,189.751068 
	C512.714722,189.751068 520.182434,189.751068 527.650146,189.751068 
	C519.461121,188.689133 521.033020,182.571945 520.958923,177.464127 
	C520.886597,172.477036 520.942932,167.488083 520.942749,161.499969 
M821.956665,172.390930 
	C821.956665,170.301178 821.956665,168.211441 821.956665,165.591919 
	C832.397217,165.591919 842.094482,165.591919 851.791870,165.591919 
	C851.278931,155.329727 844.234131,150.219620 832.409302,151.009598 
	C819.626221,151.863571 811.712219,161.763046 812.849365,175.476425 
	C813.781616,186.717224 824.298828,194.165695 837.604675,193.008392 
	C846.319031,192.250443 852.698792,187.304718 852.000244,181.149628 
	C851.024353,182.244568 850.249207,182.961624 849.654724,183.805862 
	C845.616821,189.539276 838.444153,191.873215 831.009644,189.826096 
	C825.769592,188.383224 822.699768,183.950989 822.042114,176.809525 
	C821.935608,175.653076 821.981445,174.482620 821.956665,172.390930 
M1156.274048,186.685287 
	C1160.705933,178.413391 1158.291748,171.463867 1149.490723,166.994080 
	C1145.653198,165.045135 1141.645630,163.305511 1138.170654,160.831238 
	C1136.824707,159.872894 1135.868896,156.902634 1136.319824,155.292862 
	C1136.778198,153.656509 1138.987183,151.937149 1140.784058,151.362335 
	C1145.244873,149.935272 1149.557129,152.581543 1152.392334,157.797943 
	C1153.176636,159.241028 1154.016846,160.653763 1154.831543,162.080414 
	C1155.135254,161.946899 1155.438965,161.813385 1155.742676,161.679871 
	C1155.742676,157.393448 1155.742676,153.107025 1155.742676,147.839996 
	C1154.019531,149.748886 1152.994507,150.884415 1151.941895,152.050461 
	C1150.116089,151.146011 1148.551880,150.188889 1146.864258,149.565582 
	C1137.994995,146.289703 1129.486572,152.479385 1130.652100,161.368637 
	C1131.281128,166.165359 1134.692505,168.738022 1138.633789,170.824860 
	C1142.441772,172.841064 1146.611572,174.443085 1149.854736,177.147644 
	C1151.598511,178.601730 1152.782104,182.234299 1152.270752,184.430298 
	C1151.825684,186.341263 1148.863159,188.367325 1146.627563,189.018341 
	C1141.497559,190.512177 1136.427124,187.610519 1133.978394,182.601288 
	C1133.243164,181.097244 1132.512329,179.590958 1131.779419,178.085709 
	C1131.399170,178.208755 1131.018799,178.331802 1130.638550,178.454849 
	C1130.638550,182.809586 1130.638550,187.164307 1130.638550,192.576965 
	C1132.401001,190.514099 1133.414673,189.327713 1134.405518,188.168030 
	C1143.430054,193.453552 1149.813599,193.156921 1156.274048,186.685287 
M598.183105,179.840973 
	C597.972412,179.209732 597.735413,178.585922 597.554993,177.946136 
	C593.546204,163.732300 596.802429,154.068527 607.390503,148.632767 
	C607.524170,148.564133 607.407166,148.007156 607.407166,147.260269 
	C606.478027,147.260269 605.541382,147.103058 604.675293,147.283859 
	C591.712097,149.989944 584.321838,163.630966 588.383057,177.291779 
	C591.946716,189.278824 605.206970,195.242310 617.449402,190.287247 
	C622.059204,188.421448 625.397766,185.414230 625.377380,179.501648 
	C622.239624,184.466797 618.612427,188.364105 612.418884,188.810333 
	C606.215942,189.257278 601.632141,186.775665 598.183105,179.840973 
M720.744080,244.600418 
	C721.998962,243.517853 723.382141,242.551559 724.486511,241.332703 
	C729.435181,235.871170 728.923889,226.697632 723.461548,221.508606 
	C718.236938,216.545425 709.572937,216.649307 704.530823,221.735626 
	C699.989563,226.316681 699.165222,233.812973 702.556519,239.688599 
	C705.845154,245.386551 712.197327,247.280716 720.744080,244.600418 
M902.648865,225.779877 
	C901.495361,218.568436 895.500732,216.937073 883.287354,218.909851 
	C883.287354,227.663879 883.287354,236.411041 883.287354,245.240265 
	C885.439026,245.240265 887.303894,245.240265 889.311218,245.240265 
	C889.463928,242.216080 889.597778,239.565079 889.797485,235.609207 
	C892.552917,239.090973 894.002380,241.932571 896.310059,243.549377 
	C898.537415,245.109955 901.649963,245.407120 904.373596,246.259308 
	C904.576843,245.806595 904.780090,245.353867 904.983276,244.901138 
	C902.484131,241.730896 899.984985,238.560654 898.268005,236.382660 
	C899.988098,232.584869 901.356262,229.564133 902.648865,225.779877 
M1104.447388,152.256149 
	C1105.269165,154.269348 1106.714844,156.256622 1106.799805,158.300415 
	C1107.096069,165.433701 1106.609863,172.604904 1107.029053,179.725906 
	C1107.341919,185.039398 1106.061523,188.416321 1100.233276,188.798660 
	C1100.116821,188.806290 1100.034668,189.337601 1099.867065,189.827728 
	C1106.956421,189.827728 1113.954224,189.827728 1122.107422,189.827728 
	C1114.871094,186.352554 1114.861206,186.352737 1114.736450,179.696686 
	C1114.692871,177.370956 1114.705322,175.044067 1114.704346,172.717697 
	C1114.701050,164.614502 1114.703125,156.511292 1114.703125,147.802048 
	C1109.609985,148.797897 1105.159546,149.668106 1100.709106,150.538300 
	C1100.757324,150.910019 1100.805542,151.281723 1100.853760,151.653442 
	C1101.797363,151.797913 1102.741089,151.942383 1104.447388,152.256149 
M863.104126,222.515289 
	C862.977966,221.132736 862.851746,219.750168 862.731628,218.433594 
	C860.553223,218.433594 858.948730,218.433594 856.829224,218.433594 
	C856.829224,223.256699 856.871094,227.874588 856.815002,232.491287 
	C856.774841,235.795547 857.258240,239.780029 852.294678,239.719711 
	C847.210632,239.657944 848.138062,235.480865 848.050720,232.314575 
	C847.924194,227.728882 848.018250,223.137100 848.018250,218.473969 
	C845.577148,218.473969 843.820862,218.473969 841.894287,218.473969 
	C841.804749,219.519333 841.676147,220.329285 841.675598,221.139328 
	C841.672119,226.458557 841.525208,231.785217 841.756287,237.095047 
	C842.024841,243.268890 845.527832,246.041901 852.517029,246.046432 
	C859.265991,246.050812 862.813843,243.035339 863.044373,236.818848 
	C863.210632,232.336151 863.087402,227.842712 863.104126,222.515289 
M676.533325,246.071487 
	C679.304871,245.476044 682.076477,244.880600 685.273987,244.193634 
	C684.114685,241.760056 683.414917,240.291061 682.621216,238.624954 
	C677.857056,240.200180 672.951111,241.005295 669.924927,236.336243 
	C668.646362,234.363571 668.341187,230.614929 669.351562,228.522446 
	C672.177002,222.671661 677.719482,223.976517 682.943970,225.167694 
	C683.585022,223.349380 684.115356,221.844940 684.619019,220.416229 
	C678.500671,216.686234 672.306580,217.021179 666.772644,221.165436 
	C662.225647,224.570679 660.313904,230.279648 661.884399,235.763489 
	C663.584778,241.700760 668.310364,245.225922 676.533325,246.071487 
M932.389587,234.831726 
	C934.004578,234.831726 935.619568,234.831726 937.738770,234.831726 
	C937.616394,232.580124 937.525391,230.906464 937.422791,229.018982 
	C934.320068,229.018982 931.857544,229.018982 929.222046,229.018982 
	C929.222046,227.240753 929.222046,225.719086 929.222046,223.760071 
	C932.327820,223.760071 935.079285,223.760071 938.155090,223.760071 
	C938.047302,221.718979 937.963745,220.135757 937.883057,218.608490 
	C932.475159,218.608490 927.435059,218.608490 922.529663,218.608490 
	C922.529663,227.794571 922.529663,236.532211 922.529663,245.426575 
	C927.839478,245.426575 932.768372,245.426575 937.704346,245.426575 
	C937.704346,243.450302 937.704346,241.748245 937.704346,239.825134 
	C934.695679,239.825134 932.071106,239.825134 929.492126,239.825134 
	C928.802979,235.836197 928.802979,235.836197 932.389587,234.831726 
M807.795288,241.918503 
	C807.431885,247.844162 811.256653,245.141617 814.323425,245.341461 
	C814.323425,241.649734 814.323425,238.412659 814.323425,234.986145 
	C817.325989,234.847733 819.921204,234.728088 822.750427,234.597672 
	C822.750427,232.785172 822.750427,231.215942 822.750427,229.396576 
	C819.845886,229.206360 817.099915,229.026520 814.061951,228.827560 
	C814.218933,227.080246 814.344421,225.682999 814.517578,223.755341 
	C817.724854,223.755341 820.612366,223.755341 823.809692,223.755341 
	C823.648193,221.598022 823.530640,220.027786 823.412170,218.444565 
	C818.028198,218.444565 813.121094,218.444565 807.796631,218.444565 
	C807.796631,226.145828 807.796631,233.584900 807.795288,241.918503 
M788.089355,218.238022 
	C783.175659,218.238022 778.261963,218.238022 773.368103,218.238022 
	C773.368103,227.682220 773.368103,236.405685 773.368103,245.296448 
	C775.527222,245.296448 777.400635,245.296448 779.755737,245.296448 
	C779.755737,241.720718 779.755737,238.484253 779.755737,234.782898 
	C782.788269,234.782898 785.350342,234.782898 788.055298,234.782898 
	C788.055298,232.701904 788.055298,231.117950 788.055298,229.317627 
	C785.244995,229.175095 782.671021,229.044540 779.734436,228.895599 
	C779.832336,227.123367 779.908508,225.744659 780.006836,223.964478 
	C783.100037,223.964478 785.854858,223.964478 789.094177,223.964478 
	C788.998291,221.937408 788.923096,220.348206 788.089355,218.238022 
M752.958862,234.471420 
	C752.958862,229.194275 752.958862,223.917130 752.958862,218.476440 
	C750.550659,218.476440 748.658081,218.476440 746.645752,218.476440 
	C746.645752,227.631744 746.645752,236.486420 746.645752,245.276245 
	C748.951416,245.276245 750.852295,245.276245 752.958862,245.276245 
	C752.958862,241.756439 752.958862,238.606857 752.958862,234.471420 
M792.111328,126.200577 
	C793.154053,127.195747 794.196838,128.190903 795.278076,129.222809 
	C802.188843,118.520020 801.643616,115.339638 791.697266,110.456207 
	C791.697266,115.689743 791.697266,120.623817 792.111328,126.200577 
M1112.519653,132.867523 
	C1116.356689,129.159103 1116.245361,124.656845 1112.123779,123.765427 
	C1110.468140,123.407326 1107.868286,123.940308 1106.850342,125.088844 
	C1105.839355,126.229485 1105.454590,129.281189 1106.279419,130.360886 
	C1107.391724,131.816803 1109.924072,132.187927 1112.519653,132.867523 
z"/>
<path fill="#393A3E" opacity="1.000000" stroke="none" 
	d="
M1.000000,267.500000 
	C534.034912,267.000244 1067.069824,267.000519 1600.552368,267.000366 
	C1600.833252,267.333313 1600.684082,267.943817 1600.497192,267.955536 
	C1599.169067,268.038971 1597.833374,268.000000 1596.500000,268.000000 
	C1064.666626,268.000000 532.833313,268.000000 1.000000,267.500000 
z"/>
<path fill="#E3E4E6" opacity="1.000000" stroke="none" 
	d="
M1125.999023,234.152908 
	C1070.369385,234.152893 1015.239929,234.152893 959.890015,234.152893 
	C959.890015,232.417786 959.890015,231.001816 959.890015,229.189377 
	C1094.811523,229.189377 1229.537598,229.189377 1364.656372,229.189377 
	C1364.656372,165.749481 1364.656372,102.703644 1364.656372,39.147964 
	C1193.909180,39.147964 1023.048401,39.147964 851.722473,39.147964 
	C851.722473,36.991104 851.722473,35.340252 851.722473,33.518517 
	C1024.606445,33.518517 1197.192993,33.518517 1370.212524,33.518517 
	C1370.212524,100.232201 1370.212524,166.947174 1370.212524,234.152924 
	C1289.044800,234.152924 1207.771973,234.152924 1125.999023,234.152908 
z"/>
<path fill="#E7E8E9" opacity="1.000000" stroke="none" 
	d="
M283.999939,234.143799 
	C266.348022,234.143799 249.196091,234.143799 231.756378,234.143799 
	C231.756378,167.160934 231.756378,100.439941 231.756378,33.536053 
	C404.679321,33.536053 577.277527,33.536053 750.433716,33.536053 
	C750.574585,35.008968 750.721924,36.549622 750.923096,38.652916 
	C579.592529,38.652916 408.691528,38.652916 237.410873,38.652916 
	C237.410873,102.216301 237.410873,165.265350 237.410873,228.806641 
	C373.704987,228.806641 510.085388,228.806641 646.799927,228.806641 
	C646.903564,230.699814 646.981445,232.121368 647.092163,234.143799 
	C526.011169,234.143799 405.255554,234.143799 283.999939,234.143799 
z"/>
<path fill="#F0F1F2" opacity="1.000000" stroke="none" 
	d="
M454.463898,144.003159 
	C454.458771,139.676437 454.490997,135.848373 454.439911,132.021408 
	C454.358978,125.957817 452.966949,124.503090 446.905975,123.858292 
	C445.770935,123.737541 444.660522,123.385010 442.564850,122.926254 
	C444.011322,121.836571 444.486816,121.165642 444.971313,121.159073 
	C457.252197,120.992577 469.590729,120.120346 481.799103,121.013298 
	C493.122589,121.841530 498.978790,128.989090 498.727020,138.824432 
	C498.465790,149.027863 491.778168,155.956375 480.610687,157.003220 
	C475.672028,157.466171 470.653900,157.081314 465.139709,157.081314 
	C465.139709,166.269958 464.910492,174.991989 465.373932,183.677063 
	C465.447906,185.063202 468.477936,186.629745 470.419067,187.475006 
	C472.080841,188.198593 474.140747,188.007828 476.461761,188.271027 
	C473.702179,190.622803 449.934814,191.168365 443.973877,189.281967 
	C444.770569,188.686401 445.330780,187.903717 445.905853,187.892654 
	C453.745331,187.741806 454.206299,185.188950 454.409973,177.450485 
	C454.698883,166.474899 454.470947,155.485687 454.463898,144.003159 
M483.074554,126.428749 
	C477.958984,121.542068 471.675964,121.924263 465.096802,122.270157 
	C465.096802,133.216599 465.096802,143.931198 465.096802,154.803650 
	C472.955566,155.309860 480.819275,156.070114 484.934204,147.767365 
	C488.379181,140.816376 488.270660,133.631180 483.074554,126.428749 
z"/>
<path fill="#F1F3F4" opacity="1.000000" stroke="none" 
	d="
M800.676575,111.252487 
	C796.535828,108.384430 795.814819,104.859039 796.222229,100.261162 
	C798.411377,75.554474 800.253235,50.817062 802.247437,26.092876 
	C802.347595,24.851305 802.749634,23.634081 804.271790,22.213654 
	C804.741211,23.568932 805.479309,24.893101 805.640320,26.284082 
	C808.875488,54.228207 812.172668,82.166283 815.162659,110.137085 
	C816.346802,121.214226 821.484314,130.302536 827.995544,138.876877 
	C829.687256,141.104538 831.514832,143.229095 833.337341,145.471634 
	C830.055420,147.913055 828.042480,147.436050 825.604553,144.071228 
	C817.615845,133.045471 809.192444,122.334770 800.676575,111.252487 
M804.330139,108.486153 
	C806.169312,108.742081 807.980286,108.961517 807.539185,105.268585 
	C805.754761,105.393906 803.351746,104.851540 802.329163,105.799065 
	C800.744995,107.266907 801.829346,108.402039 804.330139,108.486153 
M802.424255,110.446983 
	C802.424255,110.446983 802.524780,110.375206 802.424255,110.446983 
z"/>
<path fill="#ECEDEE" opacity="1.000000" stroke="none" 
	d="
M969.000854,190.368439 
	C963.612976,190.374985 958.721191,190.374985 953.192993,190.374985 
	C954.023682,189.006790 954.198608,188.321350 954.524536,188.239838 
	C963.183777,186.074356 963.203247,186.084961 963.211731,176.984268 
	C963.224121,163.654907 963.196289,150.325516 963.211243,136.996155 
	C963.220764,128.543747 962.854309,128.105011 954.569031,126.976448 
	C954.012695,126.900658 953.492310,126.560814 951.845886,125.895538 
	C953.671631,125.070328 954.542114,124.343430 955.424438,124.328728 
	C966.403809,124.145828 977.442505,123.314003 988.351257,124.148048 
	C1002.446289,125.225723 1009.523071,137.709717 1003.431458,149.469589 
	C999.682434,156.707184 992.668030,158.440552 985.323914,159.018158 
	C981.394165,159.327240 977.420105,159.073013 973.206360,159.073013 
	C973.206360,167.447006 972.885071,175.249252 973.453491,182.986130 
	C973.580688,184.716766 976.644348,186.540009 978.702942,187.710846 
	C980.050415,188.477280 982.022156,188.146164 983.714233,188.306641 
	C983.721069,188.991714 983.727844,189.676804 983.734619,190.361893 
	C978.988708,190.361893 974.242859,190.361893 969.000854,190.368439 
M972.992126,155.133972 
	C977.023560,158.895126 981.655090,157.240494 985.640930,155.725464 
	C993.390747,152.779663 996.621277,142.810913 993.286621,134.100281 
	C990.538452,126.921570 982.369385,123.778351 972.956543,126.482307 
	C972.956543,135.660614 972.956543,144.928802 972.992126,155.133972 
z"/>
<path fill="#DFE0E2" opacity="1.000000" stroke="none" 
	d="
M658.785400,188.791702 
	C663.738342,186.000504 668.246216,183.243027 672.692749,180.523071 
	C672.512695,185.136780 669.009155,188.023987 664.729919,189.993301 
	C656.968933,193.564926 646.087158,191.457779 640.659912,185.642883 
	C634.202881,178.724670 632.998962,166.397186 637.877686,157.154785 
	C641.942749,149.453842 649.667847,145.711411 658.885864,146.977356 
	C667.046936,148.098160 671.990601,153.858109 671.665222,162.453522 
	C662.654846,162.453522 653.602173,162.453522 644.253418,162.453522 
	C644.253418,167.783844 643.778320,172.616592 644.357666,177.319458 
	C645.391602,185.712585 649.381348,188.717758 658.785400,188.791702 
M659.989685,150.225876 
	C651.428894,146.675156 645.028931,150.701904 644.776184,159.970093 
	C650.980835,159.970093 657.175842,159.970093 664.980042,159.970093 
	C663.264404,156.291122 661.955566,153.484467 659.989685,150.225876 
z"/>
<path fill="#F3F3F5" opacity="1.000000" stroke="none" 
	d="
M520.942749,161.999954 
	C520.942932,167.488083 520.886597,172.477036 520.958923,177.464127 
	C521.033020,182.571945 519.461121,188.689133 527.650146,189.751068 
	C520.182434,189.751068 512.714722,189.751068 505.247009,189.751068 
	C505.191010,189.482651 505.135010,189.214249 505.079010,188.945831 
	C505.735046,188.670792 506.394958,188.150024 507.046570,188.160233 
	C511.579346,188.231171 513.065796,185.914551 513.032776,181.593170 
	C512.906006,164.967026 513.000854,148.339294 512.975525,131.712219 
	C512.968811,127.286682 513.982361,122.221870 507.212952,121.056030 
	C511.548462,120.148926 515.883972,119.241821 520.942749,118.183388 
	C520.942749,132.797943 520.942749,147.148956 520.942749,161.999954 
z"/>
<path fill="#E7E8E9" opacity="1.000000" stroke="none" 
	d="
M821.956726,172.854782 
	C821.981445,174.482620 821.935608,175.653076 822.042114,176.809525 
	C822.699768,183.950989 825.769592,188.383224 831.009644,189.826096 
	C838.444153,191.873215 845.616821,189.539276 849.654724,183.805862 
	C850.249207,182.961624 851.024353,182.244568 852.000244,181.149628 
	C852.698792,187.304718 846.319031,192.250443 837.604675,193.008392 
	C824.298828,194.165695 813.781616,186.717224 812.849365,175.476425 
	C811.712219,161.763046 819.626221,151.863571 832.409302,151.009598 
	C844.234131,150.219620 851.278931,155.329727 851.791870,165.591919 
	C842.094482,165.591919 832.397217,165.591919 821.956665,165.591919 
	C821.956665,168.211441 821.956665,170.301178 821.956726,172.854782 
M842.105774,156.752640 
	C838.571472,152.264420 833.918640,152.323334 829.120789,153.829712 
	C824.575623,155.256744 822.975525,158.831055 822.847595,163.549591 
	C829.588928,163.549591 836.108093,163.549591 843.100342,163.549591 
	C842.866699,161.322327 842.665405,159.403458 842.105774,156.752640 
z"/>
<path fill="#EAEBED" opacity="1.000000" stroke="none" 
	d="
M769.997925,151.214539 
	C775.555847,152.054596 781.113770,152.894653 786.961731,153.778564 
	C786.961731,147.340302 786.961731,139.515656 786.961731,131.620590 
	C792.624023,133.771851 795.910461,138.229492 795.913086,143.584641 
	C795.919312,156.076904 796.047913,168.570999 795.865234,181.060516 
	C795.793701,185.948898 796.577454,189.754776 802.463806,191.098038 
	C797.934631,191.779495 793.405518,192.460968 788.561646,193.189789 
	C788.148193,191.291870 787.807007,189.725555 787.370056,187.719925 
	C786.170044,188.298737 785.054199,188.836945 783.505005,189.086853 
	C783.043030,188.514633 783.014343,188.230759 783.186768,187.635468 
	C786.854919,185.241745 787.742065,182.151871 787.465637,178.247437 
	C787.160767,173.941147 787.392334,169.596802 787.392700,165.269028 
	C787.393250,158.808334 785.461670,155.775833 779.262146,154.189575 
	C776.338745,153.441589 773.095703,153.942764 769.998169,153.544830 
	C769.998535,152.546005 769.998230,151.880264 769.997925,151.214539 
z"/>
<path fill="#E4E5E6" opacity="1.000000" stroke="none" 
	d="
M1156.061035,186.984024 
	C1149.813599,193.156921 1143.430054,193.453552 1134.405518,188.168030 
	C1133.414673,189.327713 1132.401001,190.514099 1130.638550,192.576965 
	C1130.638550,187.164307 1130.638550,182.809586 1130.638550,178.454849 
	C1131.018799,178.331802 1131.399170,178.208755 1131.779419,178.085709 
	C1132.512329,179.590958 1133.243164,181.097244 1133.978394,182.601288 
	C1136.427124,187.610519 1141.497559,190.512177 1146.627563,189.018341 
	C1148.863159,188.367325 1151.825684,186.341263 1152.270752,184.430298 
	C1152.782104,182.234299 1151.598511,178.601730 1149.854736,177.147644 
	C1146.611572,174.443085 1142.441772,172.841064 1138.633789,170.824860 
	C1134.692505,168.738022 1131.281128,166.165359 1130.652100,161.368637 
	C1129.486572,152.479385 1137.994995,146.289703 1146.864258,149.565582 
	C1148.551880,150.188889 1150.116089,151.146011 1151.941895,152.050461 
	C1152.994507,150.884415 1154.019531,149.748886 1155.742676,147.839996 
	C1155.742676,153.107025 1155.742676,157.393448 1155.742676,161.679871 
	C1155.438965,161.813385 1155.135254,161.946899 1154.831543,162.080414 
	C1154.016846,160.653763 1153.176636,159.241028 1152.392334,157.797943 
	C1149.557129,152.581543 1145.244873,149.935272 1140.784058,151.362335 
	C1138.987183,151.937149 1136.778198,153.656509 1136.319824,155.292862 
	C1135.868896,156.902634 1136.824707,159.872894 1138.170654,160.831238 
	C1141.645630,163.305511 1145.653198,165.045135 1149.490723,166.994080 
	C1158.291748,171.463867 1160.705933,178.413391 1156.061035,186.984024 
z"/>
<path fill="#E9EAEC" opacity="1.000000" stroke="none" 
	d="
M598.316528,180.220032 
	C601.632141,186.775665 606.215942,189.257278 612.418884,188.810333 
	C618.612427,188.364105 622.239624,184.466797 625.377380,179.501648 
	C625.397766,185.414230 622.059204,188.421448 617.449402,190.287247 
	C605.206970,195.242310 591.946716,189.278824 588.383057,177.291779 
	C584.321838,163.630966 591.712097,149.989944 604.675293,147.283859 
	C605.541382,147.103058 606.478027,147.260269 607.407166,147.260269 
	C607.407166,148.007156 607.524170,148.564133 607.390503,148.632767 
	C596.802429,154.068527 593.546204,163.732300 597.554993,177.946136 
	C597.735413,178.585922 597.972412,179.209732 598.316528,180.220032 
z"/>
<path fill="#ECEDEE" opacity="1.000000" stroke="none" 
	d="
M562.319519,150.934418 
	C554.744202,146.660660 549.317993,148.452087 545.605164,156.204941 
	C544.971558,157.527786 543.505249,158.686172 542.143982,159.321365 
	C541.519348,159.612869 539.448242,158.549759 539.371704,157.934387 
	C539.165771,156.279480 539.107361,154.061157 540.039307,152.933350 
	C541.561096,151.091934 543.754211,149.575302 545.963074,148.596008 
	C548.190491,147.608505 550.760071,147.146805 553.217590,146.964828 
	C568.429382,145.838440 572.011292,149.207153 572.033752,164.387100 
	C572.042847,170.546509 571.937866,176.709396 572.133728,182.862778 
	C572.179993,184.318863 572.961731,186.696091 573.880737,186.953842 
	C575.190491,187.321167 576.939392,186.123016 579.072266,185.525909 
	C579.923279,185.846390 580.202637,186.234558 580.482056,186.622742 
	C579.875610,187.686417 579.269104,188.750122 578.100952,189.886185 
	C576.993835,190.357361 576.448486,190.756165 575.903137,191.154968 
	C571.866455,192.539810 568.429932,191.820267 565.794922,187.586227 
	C565.220215,186.253235 564.650330,185.607407 564.080444,184.961578 
	C563.713989,185.078934 563.347595,185.196259 562.389771,185.052368 
	C561.591492,184.572037 561.384460,184.352921 561.389648,183.837646 
	C562.560852,182.452896 564.261047,181.420029 564.347900,180.265793 
	C564.683838,175.800613 564.585449,171.292908 564.371338,166.814316 
	C564.353638,166.443558 562.253601,166.172379 561.066406,165.372803 
	C560.994995,164.567596 560.978149,164.244553 560.961365,163.921524 
	C561.686707,163.575470 562.412109,163.229416 563.489746,162.966873 
	C563.700989,162.997650 563.559998,162.944916 563.418945,162.892181 
	C563.556274,162.816101 563.693542,162.740021 563.830872,162.663940 
	C563.963623,160.380814 564.096375,158.097687 564.430786,155.167755 
	C563.861450,153.325439 563.090454,152.129929 562.319519,150.934418 
z"/>
<path fill="#ECEDEE" opacity="1.000000" stroke="none" 
	d="
M1035.014648,165.041550 
	C1038.983398,163.007904 1038.137695,159.335846 1037.082397,156.483566 
	C1036.307007,154.388107 1033.995728,152.048950 1031.887939,151.413177 
	C1025.940186,149.619232 1022.623474,151.773651 1019.832642,157.683701 
	C1019.212952,158.996201 1017.790833,160.138489 1016.460632,160.805603 
	C1015.918640,161.077377 1013.866638,159.912384 1013.838440,159.335876 
	C1013.757568,157.678009 1013.860229,155.621841 1014.776489,154.370651 
	C1019.236633,148.279587 1036.339233,146.398773 1041.414917,151.880447 
	C1043.632812,154.275696 1044.641235,158.396439 1044.931641,161.840408 
	C1045.475464,168.291550 1044.939697,174.826569 1045.191162,181.313599 
	C1045.271973,183.398682 1046.416260,185.442535 1047.074097,187.505234 
	C1048.933105,186.635941 1050.792236,185.766678 1052.864258,184.797806 
	C1053.041138,187.439758 1052.341064,190.063599 1049.177612,191.133957 
	C1044.803345,192.613937 1040.940796,191.921249 1038.214600,186.889221 
	C1037.049316,185.778397 1036.112183,185.294083 1035.017456,184.728333 
	C1039.512573,179.887756 1037.164795,173.924316 1037.542603,168.404205 
	C1037.570801,167.992996 1035.507202,167.438599 1034.601562,166.484711 
	C1034.862915,165.692947 1034.938721,165.367249 1035.014648,165.041550 
z"/>
<path fill="#ECEDEE" opacity="1.000000" stroke="none" 
	d="
M720.378052,244.747055 
	C712.197327,247.280716 705.845154,245.386551 702.556519,239.688599 
	C699.165222,233.812973 699.989563,226.316681 704.530823,221.735626 
	C709.572937,216.649307 718.236938,216.545425 723.461548,221.508606 
	C728.923889,226.697632 729.435181,235.871170 724.486511,241.332703 
	C723.382141,242.551559 721.998962,243.517853 720.378052,244.747055 
M718.673157,225.851608 
	C715.531189,223.194824 712.239258,223.077835 709.467468,226.089798 
	C706.430054,229.390396 706.137939,233.699905 708.895264,236.936295 
	C710.409729,238.713760 714.276550,239.923996 716.533752,239.324173 
	C720.863770,238.173508 721.440430,233.991470 720.836487,229.969711 
	C720.650818,228.733444 719.781128,227.599899 718.673157,225.851608 
z"/>
<path fill="#EDEEEF" opacity="1.000000" stroke="none" 
	d="
M902.686646,226.161636 
	C901.356262,229.564133 899.988098,232.584869 898.268005,236.382660 
	C899.984985,238.560654 902.484131,241.730896 904.983276,244.901138 
	C904.780090,245.353867 904.576843,245.806595 904.373596,246.259308 
	C901.649963,245.407120 898.537415,245.109955 896.310059,243.549377 
	C894.002380,241.932571 892.552917,239.090973 889.797485,235.609207 
	C889.597778,239.565079 889.463928,242.216080 889.311218,245.240265 
	C887.303894,245.240265 885.439026,245.240265 883.287354,245.240265 
	C883.287354,236.411041 883.287354,227.663879 883.287354,218.909851 
	C895.500732,216.937073 901.495361,218.568436 902.686646,226.161636 
M891.468201,230.563965 
	C894.345459,230.404907 896.862915,229.176025 895.716431,226.088074 
	C895.136475,224.526077 892.237915,223.824905 890.387634,222.734543 
	C889.875305,223.184586 889.362976,223.634628 888.850647,224.084671 
	C889.466675,226.215927 890.082703,228.347183 891.468201,230.563965 
z"/>
<path fill="#E9EAEC" opacity="1.000000" stroke="none" 
	d="
M1104.066162,152.171509 
	C1102.741089,151.942383 1101.797363,151.797913 1100.853760,151.653442 
	C1100.805542,151.281723 1100.757324,150.910019 1100.709106,150.538300 
	C1105.159546,149.668106 1109.609985,148.797897 1114.703125,147.802048 
	C1114.703125,156.511292 1114.701050,164.614502 1114.704346,172.717697 
	C1114.705322,175.044067 1114.692871,177.370956 1114.736450,179.696686 
	C1114.861206,186.352737 1114.871094,186.352554 1122.107422,189.827728 
	C1113.954224,189.827728 1106.956421,189.827728 1099.867065,189.827728 
	C1100.034668,189.337601 1100.116821,188.806290 1100.233276,188.798660 
	C1106.061523,188.416321 1107.341919,185.039398 1107.029053,179.725906 
	C1106.609863,172.604904 1107.096069,165.433701 1106.799805,158.300415 
	C1106.714844,156.256622 1105.269165,154.269348 1104.066162,152.171509 
z"/>
<path fill="#EFF0F1" opacity="1.000000" stroke="none" 
	d="
M863.098694,222.934677 
	C863.087402,227.842712 863.210632,232.336151 863.044373,236.818848 
	C862.813843,243.035339 859.265991,246.050812 852.517029,246.046432 
	C845.527832,246.041901 842.024841,243.268890 841.756287,237.095047 
	C841.525208,231.785217 841.672119,226.458557 841.675598,221.139328 
	C841.676147,220.329285 841.804749,219.519333 841.894287,218.473969 
	C843.820862,218.473969 845.577148,218.473969 848.018250,218.473969 
	C848.018250,223.137100 847.924194,227.728882 848.050720,232.314575 
	C848.138062,235.480865 847.210632,239.657944 852.294678,239.719711 
	C857.258240,239.780029 856.774841,235.795547 856.815002,232.491287 
	C856.871094,227.874588 856.829224,223.256699 856.829224,218.433594 
	C858.948730,218.433594 860.553223,218.433594 862.731628,218.433594 
	C862.851746,219.750168 862.977966,221.132736 863.098694,222.934677 
z"/>
<path fill="#F4F5F6" opacity="1.000000" stroke="none" 
	d="
M1075.021118,159.049667 
	C1074.743408,167.528854 1074.465576,176.008026 1074.185791,185.295898 
	C1074.852661,186.708221 1075.521484,187.311844 1076.190308,187.915466 
	C1077.858276,188.120499 1079.526245,188.325531 1081.194092,188.530563 
	C1081.140869,188.960129 1081.087646,189.389709 1081.034424,189.819275 
	C1074.241455,189.819275 1067.448364,189.819275 1059.805176,189.819275 
	C1066.769287,186.346390 1066.771362,186.346390 1066.782104,178.576340 
	C1066.790894,172.253357 1066.845947,165.929871 1066.784668,159.607529 
	C1066.722412,153.180695 1066.507935,152.955231 1059.276001,150.877701 
	C1064.630981,149.735153 1068.625610,148.882843 1073.295410,147.886490 
	C1073.596436,149.821274 1073.860962,151.520996 1073.984375,154.007141 
	C1074.235840,156.212250 1074.628418,157.630966 1075.021118,159.049667 
z"/>
<path fill="#E9EAEC" opacity="1.000000" stroke="none" 
	d="
M676.098694,246.057144 
	C668.310364,245.225922 663.584778,241.700760 661.884399,235.763489 
	C660.313904,230.279648 662.225647,224.570679 666.772644,221.165436 
	C672.306580,217.021179 678.500671,216.686234 684.619019,220.416229 
	C684.115356,221.844940 683.585022,223.349380 682.943970,225.167694 
	C677.719482,223.976517 672.177002,222.671661 669.351562,228.522446 
	C668.341187,230.614929 668.646362,234.363571 669.924927,236.336243 
	C672.951111,241.005295 677.857056,240.200180 682.621216,238.624954 
	C683.414917,240.291061 684.114685,241.760056 685.273987,244.193634 
	C682.076477,244.880600 679.304871,245.476044 676.098694,246.057144 
z"/>
<path fill="#EAEBED" opacity="1.000000" stroke="none" 
	d="
M779.184387,191.631683 
	C770.067810,194.924545 760.584595,192.553711 755.019531,185.590363 
	C749.489014,178.670227 749.418945,167.861572 755.496582,159.085480 
	C760.447998,160.426758 758.533630,157.118301 758.837036,155.479279 
	C761.659424,154.108994 764.481812,152.738708 767.655884,151.819580 
	C768.095581,153.041824 768.183716,153.812912 768.054565,154.827698 
	C766.728577,155.480530 765.619934,155.889679 764.381104,156.129578 
	C764.066467,155.965088 763.881958,155.969833 763.697449,155.974579 
	C763.898376,156.153137 764.099365,156.331696 764.596069,156.799088 
	C759.083496,166.002365 758.627563,175.269943 762.891479,185.128235 
	C762.333984,186.033478 761.944519,186.670502 761.126404,188.008545 
	C762.900940,187.383118 763.776611,187.074493 764.961304,186.868591 
	C769.267212,190.695618 774.085938,190.487473 779.037964,190.288666 
	C779.114502,191.035294 779.149414,191.333481 779.184387,191.631683 
M760.838318,157.262817 
	C760.938538,157.262131 761.038696,157.261444 760.838318,157.262817 
M764.485840,189.573334 
	C764.485840,189.573334 764.432800,189.478607 764.485840,189.573334 
z"/>
<path fill="#E4E5E6" opacity="1.000000" stroke="none" 
	d="
M931.935059,234.832275 
	C928.802979,235.836197 928.802979,235.836197 929.492126,239.825134 
	C932.071106,239.825134 934.695679,239.825134 937.704346,239.825134 
	C937.704346,241.748245 937.704346,243.450302 937.704346,245.426575 
	C932.768372,245.426575 927.839478,245.426575 922.529663,245.426575 
	C922.529663,236.532211 922.529663,227.794571 922.529663,218.608490 
	C927.435059,218.608490 932.475159,218.608490 937.883057,218.608490 
	C937.963745,220.135757 938.047302,221.718979 938.155090,223.760071 
	C935.079285,223.760071 932.327820,223.760071 929.222046,223.760071 
	C929.222046,225.719086 929.222046,227.240753 929.222046,229.018982 
	C931.857544,229.018982 934.320068,229.018982 937.422791,229.018982 
	C937.525391,230.906464 937.616394,232.580124 937.738770,234.831726 
	C935.619568,234.831726 934.004578,234.831726 931.935059,234.832275 
z"/>
<path fill="#E9EAEC" opacity="1.000000" stroke="none" 
	d="
M807.795959,241.471252 
	C807.796631,233.584900 807.796631,226.145828 807.796631,218.444565 
	C813.121094,218.444565 818.028198,218.444565 823.412170,218.444565 
	C823.530640,220.027786 823.648193,221.598022 823.809692,223.755341 
	C820.612366,223.755341 817.724854,223.755341 814.517578,223.755341 
	C814.344421,225.682999 814.218933,227.080246 814.061951,228.827560 
	C817.099915,229.026520 819.845886,229.206360 822.750427,229.396576 
	C822.750427,231.215942 822.750427,232.785172 822.750427,234.597672 
	C819.921204,234.728088 817.325989,234.847733 814.323425,234.986145 
	C814.323425,238.412659 814.323425,241.649734 814.323425,245.341461 
	C811.256653,245.141617 807.431885,247.844162 807.795959,241.471252 
z"/>
<path fill="#101113" opacity="1.000000" stroke="none" 
	d="
M1034.416016,166.950775 
	C1035.507202,167.438599 1037.570801,167.992996 1037.542603,168.404205 
	C1037.164795,173.924316 1039.512573,179.887756 1035.017456,184.728333 
	C1036.112183,185.294083 1037.049316,185.778397 1037.988770,186.631805 
	C1035.477417,187.973312 1032.963745,188.945694 1030.211792,189.493423 
	C1028.751465,188.680649 1027.544312,188.020905 1026.304321,187.951981 
	C1021.251221,187.671051 1018.349854,184.587341 1019.780334,179.780960 
	C1020.614685,176.977325 1022.623047,174.131012 1024.887451,172.245743 
	C1027.631226,169.961349 1031.202637,168.671173 1034.416016,166.950775 
z"/>
<path fill="#E3E4E6" opacity="1.000000" stroke="none" 
	d="
M788.468628,218.498505 
	C788.923096,220.348206 788.998291,221.937408 789.094177,223.964478 
	C785.854858,223.964478 783.100037,223.964478 780.006836,223.964478 
	C779.908508,225.744659 779.832336,227.123367 779.734436,228.895599 
	C782.671021,229.044540 785.244995,229.175095 788.055298,229.317627 
	C788.055298,231.117950 788.055298,232.701904 788.055298,234.782898 
	C785.350342,234.782898 782.788269,234.782898 779.755737,234.782898 
	C779.755737,238.484253 779.755737,241.720718 779.755737,245.296448 
	C777.400635,245.296448 775.527222,245.296448 773.368103,245.296448 
	C773.368103,236.405685 773.368103,227.682220 773.368103,218.238022 
	C778.261963,218.238022 783.175659,218.238022 788.468628,218.498505 
z"/>
<path fill="#E1E2E4" opacity="1.000000" stroke="none" 
	d="
M1034.601562,166.484711 
	C1031.202637,168.671173 1027.631226,169.961349 1024.887451,172.245743 
	C1022.623047,174.131012 1020.614685,176.977325 1019.780334,179.780960 
	C1018.349854,184.587341 1021.251221,187.671051 1026.304321,187.951981 
	C1027.544312,188.020905 1028.751465,188.680649 1029.834717,189.468323 
	C1027.132935,190.497589 1024.600708,191.351242 1022.000244,191.705048 
	C1018.000366,192.249298 1014.182800,191.591843 1012.307373,187.460220 
	C1010.493530,183.464081 1010.948242,178.970840 1014.411865,176.575562 
	C1020.667053,172.249741 1027.595459,168.897308 1034.628662,165.089951 
	C1034.938721,165.367249 1034.862915,165.692947 1034.601562,166.484711 
z"/>
<path fill="#E1E2E4" opacity="1.000000" stroke="none" 
	d="
M752.958862,234.964340 
	C752.958862,238.606857 752.958862,241.756439 752.958862,245.276245 
	C750.852295,245.276245 748.951416,245.276245 746.645752,245.276245 
	C746.645752,236.486420 746.645752,227.631744 746.645752,218.476440 
	C748.658081,218.476440 750.550659,218.476440 752.958862,218.476440 
	C752.958862,223.917130 752.958862,229.194275 752.958862,234.964340 
z"/>
<path fill="#E9EAEC" opacity="1.000000" stroke="none" 
	d="
M556.083557,189.148346 
	C553.083801,190.023956 550.133972,191.256393 547.071655,191.684616 
	C543.265869,192.216782 539.616455,191.330276 537.846008,187.365829 
	C536.075562,183.401321 536.419739,179.337112 539.475891,176.235687 
	C542.000427,173.673752 545.223572,171.800186 548.568237,169.961456 
	C549.022278,170.914383 549.045166,171.527451 548.887207,172.433899 
	C545.942322,176.360321 543.250854,180.476898 546.440552,184.652695 
	C547.883301,186.541443 551.682312,186.630325 554.747192,187.747223 
	C555.415833,188.355255 555.749695,188.751816 556.083557,189.148346 
z"/>
<path fill="#EAEBED" opacity="1.000000" stroke="none" 
	d="
M791.904297,125.879227 
	C791.697266,120.623817 791.697266,115.689743 791.697266,110.456207 
	C801.643616,115.339638 802.188843,118.520020 795.278076,129.222809 
	C794.196838,128.190903 793.154053,127.195747 791.904297,125.879227 
z"/>
<path fill="#DFE0E2" opacity="1.000000" stroke="none" 
	d="
M1075.155273,158.806717 
	C1074.628418,157.630966 1074.235840,156.212250 1073.910400,154.423904 
	C1075.262085,153.717499 1077.077637,153.806061 1077.744019,152.974075 
	C1081.722900,148.006317 1089.719971,147.046951 1092.568237,151.716675 
	C1093.371338,153.033432 1092.396118,155.434784 1092.236450,157.338654 
	C1090.481201,156.797928 1088.598511,156.496826 1087.006104,155.649994 
	C1085.372559,154.781342 1083.576538,152.111481 1082.631470,152.444321 
	C1079.617432,153.505890 1075.156616,153.529129 1075.155273,158.806717 
z"/>
<path fill="#E7E8E9" opacity="1.000000" stroke="none" 
	d="
M1112.183350,132.946045 
	C1109.924072,132.187927 1107.391724,131.816803 1106.279419,130.360886 
	C1105.454590,129.281189 1105.839355,126.229485 1106.850342,125.088844 
	C1107.868286,123.940308 1110.468140,123.407326 1112.123779,123.765427 
	C1116.245361,124.656845 1116.356689,129.159103 1112.183350,132.946045 
z"/>
<path fill="#E3E4E6" opacity="1.000000" stroke="none" 
	d="
M612.995911,147.086273 
	C616.406372,148.511780 619.988525,149.650650 623.126831,151.530548 
	C624.119263,152.125092 624.403076,154.796875 624.092041,156.331680 
	C623.910767,157.225830 621.625244,158.555954 620.785889,158.262344 
	C619.342529,157.757416 618.155579,156.245895 617.104858,154.957962 
	C615.629272,153.149261 614.376587,151.158691 612.901550,148.626770 
	C612.848267,147.700516 612.922058,147.393387 612.995911,147.086273 
z"/>
<path fill="#C7C8CA" opacity="1.000000" stroke="none" 
	d="
M549.068115,172.140518 
	C549.045166,171.527451 549.022278,170.914383 548.909912,169.849701 
	C552.616028,167.570374 556.411621,165.742645 560.584290,163.918228 
	C560.978149,164.244553 560.994995,164.567596 560.824280,165.575653 
	C556.780579,168.220596 552.924316,170.180557 549.068115,172.140518 
z"/>
<path fill="#C7C8CA" opacity="1.000000" stroke="none" 
	d="
M556.431763,189.124969 
	C555.749695,188.751816 555.415833,188.355255 554.999512,187.510040 
	C556.596069,186.326004 558.275085,185.590637 560.096130,185.163055 
	C560.610962,185.721252 560.983765,185.971664 561.356506,186.222076 
	C559.830994,187.181931 558.305420,188.141754 556.431763,189.124969 
z"/>
<path fill="#C7C8CA" opacity="1.000000" stroke="none" 
	d="
M580.687317,186.434357 
	C580.202637,186.234558 579.923279,185.846390 579.354614,185.246826 
	C579.299500,184.346115 579.533630,183.656799 579.767822,182.967499 
	C580.078430,182.981598 580.389099,182.995697 580.699707,183.009796 
	C580.764038,184.088516 580.828308,185.167252 580.687317,186.434357 
z"/>
<path fill="#EDEEEF" opacity="1.000000" stroke="none" 
	d="
M758.508850,155.595917 
	C758.533630,157.118301 760.447998,160.426758 755.774841,158.919952 
	C756.329834,157.760696 757.255249,156.736618 758.508850,155.595917 
z"/>
<path fill="#C7C8CA" opacity="1.000000" stroke="none" 
	d="
M562.390381,151.248291 
	C563.090454,152.129929 563.861450,153.325439 564.437439,154.730133 
	C563.648743,153.813583 563.054993,152.687866 562.390381,151.248291 
z"/>
<path fill="#EDEEEF" opacity="1.000000" stroke="none" 
	d="
M768.271851,154.583984 
	C768.183716,153.812912 768.095581,153.041824 768.003540,151.882996 
	C768.436829,151.344986 768.874084,151.194717 769.654663,151.129486 
	C769.998230,151.880264 769.998535,152.546005 769.725342,153.700272 
	C769.058533,154.320526 768.665161,154.452255 768.271851,154.583984 
z"/>
<path fill="#EDEEEF" opacity="1.000000" stroke="none" 
	d="
M782.985718,187.946884 
	C783.014343,188.230759 783.043030,188.514633 783.129944,189.222565 
	C782.464355,190.090042 781.740479,190.533493 780.517517,190.620651 
	C779.870178,190.026550 779.721985,189.788742 779.803101,189.326859 
	C781.016785,188.717468 782.001221,188.332184 782.985718,187.946884 
z"/>
<path fill="#E9EAEC" opacity="1.000000" stroke="none" 
	d="
M612.554077,146.980392 
	C612.922058,147.393387 612.848267,147.700516 612.614807,148.453705 
	C610.852173,148.820663 609.249268,148.741562 607.646362,148.662445 
	C607.658325,148.155609 607.670288,147.648758 607.682251,147.141922 
	C609.158936,147.052780 610.635559,146.963638 612.554077,146.980392 
z"/>
<path fill="#DFE0E2" opacity="1.000000" stroke="none" 
	d="
M1076.043701,187.627380 
	C1075.521484,187.311844 1074.852661,186.708221 1074.252197,185.717072 
	C1074.846191,185.999481 1075.371582,186.669388 1076.043701,187.627380 
z"/>
<path fill="#C7C8CA" opacity="1.000000" stroke="none" 
	d="
M564.284790,185.199600 
	C564.650330,185.607407 565.220215,186.253235 565.691650,187.259659 
	C565.225159,186.892715 564.857117,186.165176 564.284790,185.199600 
z"/>
<path fill="#C7C8CA" opacity="1.000000" stroke="none" 
	d="
M576.167969,191.238312 
	C576.448486,190.756165 576.993835,190.357361 577.807068,189.998032 
	C577.527588,190.465561 576.980225,190.893600 576.167969,191.238312 
z"/>
<path fill="#ECEDEE" opacity="1.000000" stroke="none" 
	d="
M561.592041,186.182327 
	C560.983765,185.971664 560.610962,185.721252 560.265869,184.989258 
	C560.547363,184.286636 560.842041,184.162018 561.177490,184.133804 
	C561.384460,184.352921 561.591492,184.572037 562.108154,185.120605 
	C562.368958,185.807007 562.172180,186.037842 561.592041,186.182327 
z"/>
<path fill="#0E0F11" opacity="1.000000" stroke="none" 
	d="
M563.830505,162.629791 
	C563.693542,162.740021 563.556274,162.816101 563.418945,162.892181 
	C563.559998,162.944916 563.700989,162.997650 563.856445,162.795654 
	C563.870911,162.540909 563.830139,162.595657 563.830505,162.629791 
z"/>
<path fill="#EDEEEF" opacity="1.000000" stroke="none" 
	d="
M779.423828,191.639694 
	C779.149414,191.333481 779.114502,191.035294 779.140808,190.133438 
	C779.202087,189.529770 779.573853,189.550949 779.573853,189.550949 
	C779.721985,189.788742 779.870178,190.026550 780.193176,190.646637 
	C780.219666,191.333801 779.984741,191.540070 779.423828,191.639694 
z"/>
<path fill="#060809" opacity="1.000000" stroke="none" 
	d="
M483.343567,126.697464 
	C488.270660,133.631180 488.379181,140.816376 484.934204,147.767365 
	C480.819275,156.070114 472.955566,155.309860 465.096802,154.803650 
	C465.096802,143.931198 465.096802,133.216599 465.096802,122.270157 
	C471.675964,121.924263 477.958984,121.542068 483.343567,126.697464 
z"/>
<path fill="#393A3E" opacity="1.000000" stroke="none" 
	d="
M803.989929,107.953110 
	C801.829346,108.402039 800.744995,107.266907 802.329163,105.799065 
	C803.351746,104.851540 805.754761,105.393906 807.129150,105.687790 
	C805.809387,106.722374 804.899658,107.337753 803.989929,107.953110 
z"/>
<path fill="#C7C8CA" opacity="1.000000" stroke="none" 
	d="
M804.160034,108.219635 
	C804.899658,107.337753 805.809387,106.722374 807.062378,106.104866 
	C807.980286,108.961517 806.169312,108.742081 804.160034,108.219635 
z"/>
<path fill="#C7C8CA" opacity="1.000000" stroke="none" 
	d="
M802.474487,110.411095 
	C802.524780,110.375206 802.424255,110.446983 802.474487,110.411095 
z"/>
<path fill="#08090C" opacity="1.000000" stroke="none" 
	d="
M972.974365,154.665466 
	C972.956543,144.928802 972.956543,135.660614 972.956543,126.482307 
	C982.369385,123.778351 990.538452,126.921570 993.286621,134.100281 
	C996.621277,142.810913 993.390747,152.779663 985.640930,155.725464 
	C981.655090,157.240494 977.023560,158.895126 972.974365,154.665466 
z"/>
<path fill="#0B0C0E" opacity="1.000000" stroke="none" 
	d="
M660.318237,150.451843 
	C661.955566,153.484467 663.264404,156.291122 664.980042,159.970093 
	C657.175842,159.970093 650.980835,159.970093 644.776184,159.970093 
	C645.028931,150.701904 651.428894,146.675156 660.318237,150.451843 
z"/>
<path fill="#101113" opacity="1.000000" stroke="none" 
	d="
M842.284912,157.118622 
	C842.665405,159.403458 842.866699,161.322327 843.100342,163.549591 
	C836.108093,163.549591 829.588928,163.549591 822.847595,163.549591 
	C822.975525,158.831055 824.575623,155.256744 829.120789,153.829712 
	C833.918640,152.323334 838.571472,152.264420 842.284912,157.118622 
z"/>
<path fill="#060809" opacity="1.000000" stroke="none" 
	d="
M779.803101,189.326859 
	C779.573853,189.550949 779.202087,189.529770 779.099243,189.684998 
	C774.085938,190.487473 769.267212,190.695618 764.834351,186.576813 
	C763.952026,185.741547 763.505798,185.300781 763.059570,184.860016 
	C758.627563,175.269943 759.083496,166.002365 764.637146,156.734558 
	C764.382385,156.381210 764.511230,156.298813 764.511230,156.298813 
	C765.619934,155.889679 766.728577,155.480530 768.054565,154.827698 
	C768.665161,154.452255 769.058533,154.320526 769.724670,154.033356 
	C773.095703,153.942764 776.338745,153.441589 779.262146,154.189575 
	C785.461670,155.775833 787.393250,158.808334 787.392700,165.269028 
	C787.392334,169.596802 787.160767,173.941147 787.465637,178.247437 
	C787.742065,182.151871 786.854919,185.241745 783.186768,187.635468 
	C782.001221,188.332184 781.016785,188.717468 779.803101,189.326859 
z"/>
<path fill="#0E0F11" opacity="1.000000" stroke="none" 
	d="
M561.389648,183.837646 
	C560.842041,184.162018 560.547363,184.286636 560.123779,184.681473 
	C558.275085,185.590637 556.596069,186.326004 554.664734,187.298569 
	C551.682312,186.630325 547.883301,186.541443 546.440552,184.652695 
	C543.250854,180.476898 545.942322,176.360321 548.887207,172.433899 
	C552.924316,170.180557 556.780579,168.220596 560.878906,166.057785 
	C562.253601,166.172379 564.353638,166.443558 564.371338,166.814316 
	C564.585449,171.292908 564.683838,175.800613 564.347900,180.265793 
	C564.261047,181.420029 562.560852,182.452896 561.389648,183.837646 
z"/>
<path fill="#101113" opacity="1.000000" stroke="none" 
	d="
M718.948914,226.135452 
	C719.781128,227.599899 720.650818,228.733444 720.836487,229.969711 
	C721.440430,233.991470 720.863770,238.173508 716.533752,239.324173 
	C714.276550,239.923996 710.409729,238.713760 708.895264,236.936295 
	C706.137939,233.699905 706.430054,229.390396 709.467468,226.089798 
	C712.239258,223.077835 715.531189,223.194824 718.948914,226.135452 
z"/>
<path fill="#393A3E" opacity="1.000000" stroke="none" 
	d="
M891.083496,230.521210 
	C890.082703,228.347183 889.466675,226.215927 888.850647,224.084671 
	C889.362976,223.634628 889.875305,223.184586 890.387634,222.734543 
	C892.237915,223.824905 895.136475,224.526077 895.716431,226.088074 
	C896.862915,229.176025 894.345459,230.404907 891.083496,230.521210 
z"/>
<path fill="#EDEEEF" opacity="1.000000" stroke="none" 
	d="
M762.891479,185.128235 
	C763.505798,185.300781 763.952026,185.741547 764.525269,186.474091 
	C763.776611,187.074493 762.900940,187.383118 761.126404,188.008545 
	C761.944519,186.670502 762.333984,186.033478 762.891479,185.128235 
z"/>
<path fill="#EDEEEF" opacity="1.000000" stroke="none" 
	d="
M760.988647,157.261780 
	C761.038696,157.261444 760.938538,157.262131 760.988647,157.261780 
z"/>
<path fill="#EDEEEF" opacity="1.000000" stroke="none" 
	d="
M764.341309,156.445740 
	C764.099365,156.331696 763.898376,156.153137 763.697449,155.974579 
	C763.881958,155.969833 764.066467,155.965088 764.381104,156.129578 
	C764.511230,156.298813 764.382385,156.381210 764.341309,156.445740 
z"/>
<path fill="#EDEEEF" opacity="1.000000" stroke="none" 
	d="
M764.459351,189.525970 
	C764.432800,189.478607 764.485840,189.573334 764.459351,189.525970 
z"/>
</svg>